<?xml version="1.0" encoding="UTF-8" standalone="no"?>
<!DOCTYPE svg PUBLIC "-//W3C//DTD SVG 1.1//EN"
 "http://www.w3.org/Graphics/SVG/1.1/DTD/svg11.dtd">
<!-- Generated by graphviz version 15.1.1 (20260805.0921)
 -->
<!-- Pages: 1 -->
<svg width="725pt" height="270pt"
 viewBox="0.00 0.00 725.00 270.00" xmlns="http://www.w3.org/2000/svg" xmlns:xlink="http://www.w3.org/1999/xlink">
<g id="graph0" class="graph" transform="scale(1 1) rotate(0) translate(4 265.5)">
<polygon fill="white" stroke="none" points="-4,4 -4,-265.5 721.25,-265.5 721.25,4 -4,4"/>
<!-- 2199509082736 -->
<g id="node1" class="node">
<title>2199509082736</title>
<polygon fill="none" stroke="black" points="1.5,-187.5 1.5,-261 82.75,-261 82.75,-187.5 1.5,-187.5"/>
<text xml:space="preserve" text-anchor="middle" x="42.12" y="-243.7" font-family="Times New Roman,serif" font-size="14.00">a</text>
<polyline fill="none" stroke="black" points="1.5,-236.5 82.75,-236.5"/>
<text xml:space="preserve" text-anchor="middle" x="42.12" y="-219.2" font-family="Times New Roman,serif" font-size="14.00">data 2.0000</text>
<polyline fill="none" stroke="black" points="1.5,-212 82.75,-212"/>
<text xml:space="preserve" text-anchor="middle" x="42.12" y="-194.7" font-family="Times New Roman,serif" font-size="14.00">grad 0.0000</text>
</g>
<!-- 2199511024000* -->
<g id="node7" class="node">
<title>2199511024000*</title>
<ellipse fill="none" stroke="black" cx="147.25" cy="-177.25" rx="27" ry="18"/>
<text xml:space="preserve" text-anchor="middle" x="147.25" y="-172.2" font-family="Times New Roman,serif" font-size="14.00">*</text>
</g>
<!-- 2199509082736&#45;&gt;2199511024000* -->
<g id="edge9" class="edge">
<title>2199509082736&#45;&gt;2199511024000*</title>
<path fill="none" stroke="black" d="M83,-206.08C93.32,-201.37 104.3,-196.37 114.17,-191.87"/>
<polygon fill="black" stroke="black" points="115.33,-195.19 122.97,-187.86 112.42,-188.82 115.33,-195.19"/>
</g>
<!-- 2199511024304 -->
<g id="node2" class="node">
<title>2199511024304</title>
<polygon fill="none" stroke="black" points="424.25,-93.5 424.25,-167 505.5,-167 505.5,-93.5 424.25,-93.5"/>
<text xml:space="preserve" text-anchor="middle" x="464.88" y="-149.7" font-family="Times New Roman,serif" font-size="14.00"> </text>
<polyline fill="none" stroke="black" points="424.25,-142.5 505.5,-142.5"/>
<text xml:space="preserve" text-anchor="middle" x="464.88" y="-125.2" font-family="Times New Roman,serif" font-size="14.00">data 4.0000</text>
<polyline fill="none" stroke="black" points="424.25,-118 505.5,-118"/>
<text xml:space="preserve" text-anchor="middle" x="464.88" y="-100.7" font-family="Times New Roman,serif" font-size="14.00">grad 0.0000</text>
</g>
<!-- 2199506573232* -->
<g id="node9" class="node">
<title>2199506573232*</title>
<ellipse fill="none" stroke="black" cx="570" cy="-83.25" rx="27" ry="18"/>
<text xml:space="preserve" text-anchor="middle" x="570" y="-78.2" font-family="Times New Roman,serif" font-size="14.00">*</text>
</g>
<!-- 2199511024304&#45;&gt;2199506573232* -->
<g id="edge5" class="edge">
<title>2199511024304&#45;&gt;2199506573232*</title>
<path fill="none" stroke="black" d="M505.75,-112.08C516.07,-107.37 527.05,-102.37 536.92,-97.87"/>
<polygon fill="black" stroke="black" points="538.08,-101.19 545.72,-93.86 535.17,-94.82 538.08,-101.19"/>
</g>
<!-- 2199511024304+ -->
<g id="node3" class="node">
<title>2199511024304+</title>
<ellipse fill="none" stroke="black" cx="359.75" cy="-130.25" rx="27" ry="18"/>
<text xml:space="preserve" text-anchor="middle" x="359.75" y="-125.2" font-family="Times New Roman,serif" font-size="14.00">+</text>
</g>
<!-- 2199511024304+&#45;&gt;2199511024304 -->
<g id="edge1" class="edge">
<title>2199511024304+&#45;&gt;2199511024304</title>
<path fill="none" stroke="black" d="M387.04,-130.25C394.84,-130.25 403.67,-130.25 412.49,-130.25"/>
<polygon fill="black" stroke="black" points="412.47,-133.75 422.47,-130.25 412.47,-126.75 412.47,-133.75"/>
</g>
<!-- 2199509962576 -->
<g id="node4" class="node">
<title>2199509962576</title>
<polygon fill="none" stroke="black" points="0,-94.5 0,-168 84.25,-168 84.25,-94.5 0,-94.5"/>
<text xml:space="preserve" text-anchor="middle" x="42.12" y="-150.7" font-family="Times New Roman,serif" font-size="14.00">b</text>
<polyline fill="none" stroke="black" points="0,-143.5 84.25,-143.5"/>
<text xml:space="preserve" text-anchor="middle" x="42.12" y="-126.2" font-family="Times New Roman,serif" font-size="14.00">data &#45;3.0000</text>
<polyline fill="none" stroke="black" points="0,-119 84.25,-119"/>
<text xml:space="preserve" text-anchor="middle" x="42.12" y="-101.7" font-family="Times New Roman,serif" font-size="14.00">grad 0.0000</text>
</g>
<!-- 2199509962576&#45;&gt;2199511024000* -->
<g id="edge4" class="edge">
<title>2199509962576&#45;&gt;2199511024000*</title>
<path fill="none" stroke="black" d="M84.48,-149.69C94.22,-154.04 104.48,-158.62 113.77,-162.76"/>
<polygon fill="black" stroke="black" points="112.2,-165.9 122.76,-166.77 115.06,-159.5 112.2,-165.9"/>
</g>
<!-- 2199506656080 -->
<g id="node5" class="node">
<title>2199506656080</title>
<polygon fill="none" stroke="black" points="422.75,-0.5 422.75,-74 507,-74 507,-0.5 422.75,-0.5"/>
<text xml:space="preserve" text-anchor="middle" x="464.88" y="-56.7" font-family="Times New Roman,serif" font-size="14.00">f</text>
<polyline fill="none" stroke="black" points="422.75,-49.5 507,-49.5"/>
<text xml:space="preserve" text-anchor="middle" x="464.88" y="-32.2" font-family="Times New Roman,serif" font-size="14.00">data &#45;2.0000</text>
<polyline fill="none" stroke="black" points="422.75,-25 507,-25"/>
<text xml:space="preserve" text-anchor="middle" x="464.88" y="-7.7" font-family="Times New Roman,serif" font-size="14.00">grad 0.0000</text>
</g>
<!-- 2199506656080&#45;&gt;2199506573232* -->
<g id="edge8" class="edge">
<title>2199506656080&#45;&gt;2199506573232*</title>
<path fill="none" stroke="black" d="M507.23,-55.69C516.97,-60.04 527.23,-64.62 536.52,-68.76"/>
<polygon fill="black" stroke="black" points="534.95,-71.9 545.51,-72.77 537.81,-65.5 534.95,-71.9"/>
</g>
<!-- 2199511024000 -->
<g id="node6" class="node">
<title>2199511024000</title>
<polygon fill="none" stroke="black" points="211.38,-140.5 211.38,-214 295.62,-214 295.62,-140.5 211.38,-140.5"/>
<text xml:space="preserve" text-anchor="middle" x="253.5" y="-196.7" font-family="Times New Roman,serif" font-size="14.00"> </text>
<polyline fill="none" stroke="black" points="211.38,-189.5 295.62,-189.5"/>
<text xml:space="preserve" text-anchor="middle" x="253.5" y="-172.2" font-family="Times New Roman,serif" font-size="14.00">data &#45;6.0000</text>
<polyline fill="none" stroke="black" points="211.38,-165 295.62,-165"/>
<text xml:space="preserve" text-anchor="middle" x="253.5" y="-147.7" font-family="Times New Roman,serif" font-size="14.00">grad 0.0000</text>
</g>
<!-- 2199511024000&#45;&gt;2199511024304+ -->
<g id="edge7" class="edge">
<title>2199511024000&#45;&gt;2199511024304+</title>
<path fill="none" stroke="black" d="M296,-158.54C306.15,-153.96 316.86,-149.14 326.5,-144.79"/>
<polygon fill="black" stroke="black" points="327.79,-148.05 335.47,-140.75 324.91,-141.67 327.79,-148.05"/>
</g>
<!-- 2199511024000*&#45;&gt;2199511024000 -->
<g id="edge2" class="edge">
<title>2199511024000*&#45;&gt;2199511024000</title>
<path fill="none" stroke="black" d="M174.56,-177.25C182.27,-177.25 191,-177.25 199.75,-177.25"/>
<polygon fill="black" stroke="black" points="199.67,-180.75 209.67,-177.25 199.67,-173.75 199.67,-180.75"/>
</g>
<!-- 2199506573232 -->
<g id="node8" class="node">
<title>2199506573232</title>
<polygon fill="none" stroke="black" points="633,-46.5 633,-120 717.25,-120 717.25,-46.5 633,-46.5"/>
<text xml:space="preserve" text-anchor="middle" x="675.12" y="-102.7" font-family="Times New Roman,serif" font-size="14.00"> </text>
<polyline fill="none" stroke="black" points="633,-95.5 717.25,-95.5"/>
<text xml:space="preserve" text-anchor="middle" x="675.12" y="-78.2" font-family="Times New Roman,serif" font-size="14.00">data &#45;8.0000</text>
<polyline fill="none" stroke="black" points="633,-71 717.25,-71"/>
<text xml:space="preserve" text-anchor="middle" x="675.12" y="-53.7" font-family="Times New Roman,serif" font-size="14.00">grad 0.0000</text>
</g>
<!-- 2199506573232*&#45;&gt;2199506573232 -->
<g id="edge3" class="edge">
<title>2199506573232*&#45;&gt;2199506573232</title>
<path fill="none" stroke="black" d="M597.29,-83.25C604.67,-83.25 612.98,-83.25 621.32,-83.25"/>
<polygon fill="black" stroke="black" points="621.14,-86.75 631.14,-83.25 621.14,-79.75 621.14,-86.75"/>
</g>
<!-- 2199509963216 -->
<g id="node10" class="node">
<title>2199509963216</title>
<polygon fill="none" stroke="black" points="210.25,-47.5 210.25,-121 296.75,-121 296.75,-47.5 210.25,-47.5"/>
<text xml:space="preserve" text-anchor="middle" x="253.5" y="-103.7" font-family="Times New Roman,serif" font-size="14.00">c</text>
<polyline fill="none" stroke="black" points="210.25,-96.5 296.75,-96.5"/>
<text xml:space="preserve" text-anchor="middle" x="253.5" y="-79.2" font-family="Times New Roman,serif" font-size="14.00">data 10.0000</text>
<polyline fill="none" stroke="black" points="210.25,-72 296.75,-72"/>
<text xml:space="preserve" text-anchor="middle" x="253.5" y="-54.7" font-family="Times New Roman,serif" font-size="14.00">grad 0.0000</text>
</g>
<!-- 2199509963216&#45;&gt;2199511024304+ -->
<g id="edge6" class="edge">
<title>2199509963216&#45;&gt;2199511024304+</title>
<path fill="none" stroke="black" d="M297.2,-103.09C306.9,-107.37 317.05,-111.85 326.25,-115.91"/>
<polygon fill="black" stroke="black" points="324.57,-119 335.14,-119.83 327.4,-112.59 324.57,-119"/>
</g>
</g>
</svg>
